<svg width="130" height="29" viewBox="0 0 130 29" fill="none" xmlns="http://www.w3.org/2000/svg">
<path d="M18.88 22.68H7.76L5.92 28H0.04L10.08 0.0399976H16.6L26.64 28H20.72L18.88 22.68ZM17.36 18.2L13.32 6.52L9.28 18.2H17.36ZM35.9928 9.28C36.7128 8.10667 37.6461 7.18667 38.7928 6.52C39.9661 5.85333 41.2995 5.52 42.7928 5.52V11.4H41.3128C39.5528 11.4 38.2195 11.8133 37.3128 12.64C36.4328 13.4667 35.9928 14.9067 35.9928 16.96V28H30.3928V5.84H35.9928V9.28ZM53.0847 10.44V21.16C53.0847 21.9067 53.258 22.4533 53.6047 22.8C53.978 23.12 54.5914 23.28 55.4447 23.28H58.0447V28H54.5247C49.8047 28 47.4447 25.7067 47.4447 21.12V10.44H44.8047V5.84H47.4447V0.359998H53.0847V5.84H58.0447V10.44H53.0847ZM82.6725 16.44C82.6725 17.24 82.6192 17.96 82.5125 18.6H66.3125C66.4458 20.2 67.0058 21.4533 67.9925 22.36C68.9792 23.2667 70.1925 23.72 71.6325 23.72C73.7125 23.72 75.1925 22.8267 76.0725 21.04H82.1125C81.4725 23.1733 80.2458 24.9333 78.4325 26.32C76.6192 27.68 74.3925 28.36 71.7525 28.36C69.6192 28.36 67.6992 27.8933 65.9925 26.96C64.3125 26 62.9925 24.6533 62.0325 22.92C61.0992 21.1867 60.6325 19.1867 60.6325 16.92C60.6325 14.6267 61.0992 12.6133 62.0325 10.88C62.9658 9.14667 64.2725 7.81333 65.9525 6.88C67.6325 5.94667 69.5658 5.48 71.7525 5.48C73.8592 5.48 75.7392 5.93333 77.3925 6.84C79.0725 7.74667 80.3658 9.04 81.2725 10.72C82.2058 12.3733 82.6725 14.28 82.6725 16.44ZM76.8725 14.84C76.8458 13.4 76.3258 12.2533 75.3125 11.4C74.2992 10.52 73.0592 10.08 71.5925 10.08C70.2058 10.08 69.0325 10.5067 68.0725 11.36C67.1392 12.1867 66.5658 13.3467 66.3525 14.84H76.8725ZM95.24 28.36C93.4267 28.36 91.8 28.04 90.36 27.4C88.92 26.7333 87.7733 25.84 86.92 24.72C86.0933 23.6 85.64 22.36 85.56 21H91.2C91.3067 21.8533 91.72 22.56 92.44 23.12C93.1867 23.68 94.1067 23.96 95.2 23.96C96.2667 23.96 97.0933 23.7467 97.68 23.32C98.2933 22.8933 98.6 22.3467 98.6 21.68C98.6 20.96 98.2267 20.4267 97.48 20.08C96.76 19.7067 95.6 19.3067 94 18.88C92.3467 18.48 90.9867 18.0667 89.92 17.64C88.88 17.2133 87.9733 16.56 87.2 15.68C86.4533 14.8 86.08 13.6133 86.08 12.12C86.08 10.8933 86.4267 9.77333 87.12 8.76C87.84 7.74666 88.8533 6.94667 90.16 6.36C91.4933 5.77333 93.0533 5.48 94.84 5.48C97.48 5.48 99.5867 6.14667 101.16 7.48C102.733 8.78667 103.6 10.56 103.76 12.8H98.4C98.32 11.92 97.9467 11.2267 97.28 10.72C96.64 10.1867 95.7733 9.92 94.68 9.92C93.6667 9.92 92.88 10.1067 92.32 10.48C91.7867 10.8533 91.52 11.3733 91.52 12.04C91.52 12.7867 91.8933 13.36 92.64 13.76C93.3867 14.1333 94.5467 14.52 96.12 14.92C97.72 15.32 99.04 15.7333 100.08 16.16C101.12 16.5867 102.013 17.2533 102.76 18.16C103.533 19.04 103.933 20.2133 103.96 21.68C103.96 22.96 103.6 24.1067 102.88 25.12C102.187 26.1333 101.173 26.9333 99.84 27.52C98.5333 28.08 97 28.36 95.24 28.36ZM118.397 28.36C116.264 28.36 114.344 27.8933 112.637 26.96C110.93 26 109.584 24.6533 108.597 22.92C107.637 21.1867 107.157 19.1867 107.157 16.92C107.157 14.6533 107.65 12.6533 108.637 10.92C109.65 9.18667 111.024 7.85333 112.757 6.92C114.49 5.96 116.424 5.48 118.557 5.48C120.69 5.48 122.624 5.96 124.357 6.92C126.09 7.85333 127.45 9.18667 128.437 10.92C129.45 12.6533 129.957 14.6533 129.957 16.92C129.957 19.1867 129.437 21.1867 128.397 22.92C127.384 24.6533 125.997 26 124.237 26.96C122.504 27.8933 120.557 28.36 118.397 28.36ZM118.397 23.48C119.41 23.48 120.357 23.24 121.237 22.76C122.144 22.2533 122.864 21.5067 123.397 20.52C123.93 19.5333 124.197 18.3333 124.197 16.92C124.197 14.8133 123.637 13.2 122.517 12.08C121.424 10.9333 120.077 10.36 118.477 10.36C116.877 10.36 115.53 10.9333 114.437 12.08C113.37 13.2 112.837 14.8133 112.837 16.92C112.837 19.0267 113.357 20.6533 114.397 21.8C115.464 22.92 116.797 23.48 118.397 23.48Z" fill="black"/>
</svg>
